<mxfile host="app.diagrams.net" modified="2024-07-24T17:12:57.374Z" agent="Mozilla/5.0 (X11; Ubuntu; Linux x86_64; rv:128.0) Gecko/20100101 Firefox/128.0" version="24.6.4" etag="DRCJT7YfiZpfo60YmpUf" type="github">
  <diagram name="Page-1" id="ce3V_UwOPCoTEIbl0f0A">
    <mxGraphModel>
      <root>
        <mxCell id="0" />
        <mxCell id="1" parent="0" />
      </root>
    </mxGraphModel>
  </diagram>
</mxfile>
